{"title":"The Italian Job (1969).DVDRip","uid":7020223,"size":731057136,"categoryP":"video","categoryS":"movies","magnet":"?xt=urn:btih:b8251c59d211501660f0c96d9e86cd549e3f181f&amp;dn=The+Italian+Job+%281969%29.DVDRip&amp;tr=udp%3A%2F%2Ftracker.openbittorrent.com%3A80&amp;tr=udp%3A%2F%2Fopen.demonii.com%3A1337&amp;tr=udp%3A%2F%2Ftracker.coppersurfer.tk%3A6969&amp;tr=udp%3A%2F%2Fexodus.desync.com%3A6969","seeders":1,"leechers":0,"uploader":"kimman59","files":-1,"time":1328810939,"description":"General\n\nCharlie Croker (Michael Caine) ÃƒÂ¤r ute ur fÃƒÂ¤ngelset och har en genialisk plan fÃƒÂ¶r ÃƒÂ¥rhundradets stÃƒÂ¶t. I sÃƒÂ¤llskap av stjÃƒÂ¤rnfÃƒÂ¶rbrytaren Mr Bridger (NoÃƒÂ«l Coward) ger sig Charlie av med ett gÃƒÂ¤ng toppskurkar och tre mycket speciella Mini-bilar. MÃƒÂ¥let ÃƒÂ¤r att stjÃƒÂ¤la 4 miljoner dollar mitt framfÃƒÂ¶r nÃƒÂ¤san pÃƒÂ¥ polisen i Turin. Men med polisen och maffian i hÃƒÂ¤larna upptÃƒÂ¤cker Charlie att det var rena barnleken att lÃƒÂ¤gga vantarna pÃƒÂ¥ pengarna jÃƒÂ¤mfÃƒÂ¶rt med att komma undan med dem...\n\n\n\nComplete name                    : The Italian Job (1969).avi\nFormat                           : AVI\nFormat/Info                      : Audio Video Interleave\nFile size                        : 697 MiB\nDuration                         : 1h 35mn\nOverall bit rate                 : 1 021 Kbps\n\nVideo\nID                               : 0\nFormat                           : MPEG-4 Visual\nFormat profile                   : Advanced Simple@L5\nFormat settings, BVOP            : 1\nFormat settings, QPel            : No\nFormat settings, GMC             : No warppoints\nFormat settings, Matrix          : Default (MPEG)\nMuxing mode                      : Packed bitstream\nCodec ID                         : XVID\nCodec ID/Hint                    : XviD\nDuration                         : 1h 35mn\nBit rate                         : 563 Kbps\nWidth                            : 536 pixels\nHeight                           : 224 pixels\nDisplay aspect ratio             : 2.35:1\nFrame rate                       : 25.000 fps\nColor space                      : YUV\nChroma subsampling               : 4:2:0\nBit depth                        : 8 bits\nScan type                        : Progressive\nCompression mode                 : Lossy\nBits/(Pixel*Frame)               : 0.188\nStream size                      : 385 MiB (55%)\nWriting library                  : XviD 1.2.1 (UTC 2008-12-04)\n\nAudio\nID                               : 1\nFormat                           : AC-3\nFormat/Info                      : Audio Coding 3\nMode extension                   : CM (complete main)\nCodec ID                         : 2000\nDuration                         : 1h 35mn\nBit rate mode                    : Constant\nBit rate                         : 448 Kbps\nChannel(s)                       : 6 channels\nChannel positions                : Front: L C R, Side: L R, LFE\nSampling rate                    : 48.0 KHz\nBit depth                        : 16 bits\nCompression mode                 : Lossy\nStream size                      : 306 MiB (44%)\nAlignment                        : Split accross interleaves\nInterleave, duration             : 40 ms (1.00 video frame)\nInterleave, preload duration     : 500 ms\n\nSubtitle                         : Swedish","torrent":{"xt":"urn:btih:b8251c59d211501660f0c96d9e86cd549e3f181f","amp;dn":"The+Italian+Job+%281969%29.DVDRip","amp;tr":["udp%3A%2F%2Ftracker.openbittorrent.com%3A80","udp%3A%2F%2Fopen.demonii.com%3A1337","udp%3A%2F%2Ftracker.coppersurfer.tk%3A6969","udp%3A%2F%2Fexodus.desync.com%3A6969"],"infoHash":"b8251c59d211501660f0c96d9e86cd549e3f181f","infoHashBuffer":{"type":"Buffer","data":[184,37,28,89,210,17,80,22,96,240,201,109,158,134,205,84,158,63,24,31]},"announce":[],"urlList":[]}}